<svg width="32" height="32" fill="none" xmlns="http://www.w3.org/2000/svg"><path fill-rule="evenodd" clip-rule="evenodd" d="M14.42 1.6C15.38.59 16 0 16 0c.2187.725333.466 1.41733.742 2.076 1.624 3.892 4.146 6.7 6.394 9.2C25.756 14.192 28 16.69 28 20c0 3.1826-1.2643 6.2348-3.5147 8.4853C22.2348 30.7357 19.1826 32 16 32c-3.1826 0-6.23484-1.2643-8.48528-3.5147C5.26428 26.2348 4 23.1826 4 20c0-6.664 7.16-14.966 10.42-18.4Zm.826 2.042c-1.2849 1.38941-2.5055 2.83693-3.658 4.338-1.452 1.9-2.872 4.016-3.92 6.14C6.608 16.266 6 18.276 6 20c0 2.6522 1.05357 5.1957 2.92893 7.0711C10.8043 28.9464 13.3478 30 16 30c2.6522 0 5.1957-1.0536 7.0711-2.9289C24.9464 25.1957 26 22.6522 26 20c0-2.402-1.592-4.314-4.362-7.4l-.06-.064C19.5 10.22 17 7.442 15.246 3.642Z" fill="#101828"/><path fill-rule="evenodd" clip-rule="evenodd" d="M9.106 15.552c1.64-3.282 3.434-5.506 4.186-6.26001l1.416 1.41601c-.58.58-2.256 2.622-3.814 5.74l-1.788-.896Z" fill="#101828"/></svg>