<svg width="32" height="32" fill="none" xmlns="http://www.w3.org/2000/svg"><g clip-path="url(#a)"><path d="M12 2H2v28h10V2Zm18 0H20v10h10V2Zm0 18v10H20V20h10ZM0 2C0 1.46957.210714.960859.585786.585786.960859.210714 1.46957 0 2 0h10c.5304 0 1.0391.210714 1.4142.585786C13.7893.960859 14 1.46957 14 2v28c0 .5304-.2107 1.0391-.5858 1.4142S12.5304 32 12 32H2c-.53043 0-1.039141-.2107-1.414214-.5858C.210714 31.0391 0 30.5304 0 30V2Zm18 0c0-.53043.2107-1.039141.5858-1.414214C18.9609.210714 19.4696 0 20 0h10c.5304 0 1.0391.210714 1.4142.585786C31.7893.960859 32 1.46957 32 2v10c0 .5304-.2107 1.0391-.5858 1.4142S30.5304 14 30 14H20c-.5304 0-1.0391-.2107-1.4142-.5858S18 12.5304 18 12V2Zm2 16c-.5304 0-1.0391.2107-1.4142.5858S18 19.4696 18 20v10c0 .5304.2107 1.0391.5858 1.4142S19.4696 32 20 32h10c.5304 0 1.0391-.2107 1.4142-.5858S32 30.5304 32 30V20c0-.5304-.2107-1.0391-.5858-1.4142S30.5304 18 30 18H20Z" fill="#101828"/></g><defs><clipPath id="a"><path fill="#fff" d="M0 0h32v32H0z"/></clipPath></defs></svg>