<svg width="32" height="32" fill="none" xmlns="http://www.w3.org/2000/svg"><path d="M2 5c0-.79565.31607-1.55871.87868-2.12132C3.44129 2.31607 4.20435 2 5 2h6c.7956 0 1.5587.31607 2.1213.87868C13.6839 3.44129 14 4.20435 14 5v6c0 .7956-.3161 1.5587-.8787 2.1213C12.5587 13.6839 11.7956 14 11 14H5c-.79565 0-1.55871-.3161-2.12132-.8787C2.31607 12.5587 2 11.7956 2 11V5Zm3-1c-.26522 0-.51957.10536-.70711.29289C4.10536 4.48043 4 4.73478 4 5v6c0 .2652.10536.5196.29289.7071C4.48043 11.8946 4.73478 12 5 12h6c.2652 0 .5196-.1054.7071-.2929S12 11.2652 12 11V5c0-.26522-.1054-.51957-.2929-.70711C11.5196 4.10536 11.2652 4 11 4H5Zm13 1c0-.79565.3161-1.55871.8787-2.12132C19.4413 2.31607 20.2044 2 21 2h6c.7956 0 1.5587.31607 2.1213.87868C29.6839 3.44129 30 4.20435 30 5v6c0 .7956-.3161 1.5587-.8787 2.1213C28.5587 13.6839 27.7956 14 27 14h-6c-.7956 0-1.5587-.3161-2.1213-.8787C18.3161 12.5587 18 11.7956 18 11V5Zm3-1c-.2652 0-.5196.10536-.7071.29289C20.1054 4.48043 20 4.73478 20 5v6c0 .2652.1054.5196.2929.7071S20.7348 12 21 12h6c.2652 0 .5196-.1054.7071-.2929S28 11.2652 28 11V5c0-.26522-.1054-.51957-.2929-.70711C27.5196 4.10536 27.2652 4 27 4h-6ZM2 21c0-.7956.31607-1.5587.87868-2.1213C3.44129 18.3161 4.20435 18 5 18h6c.7956 0 1.5587.3161 2.1213.8787C13.6839 19.4413 14 20.2044 14 21v6c0 .7956-.3161 1.5587-.8787 2.1213C12.5587 29.6839 11.7956 30 11 30H5c-.79565 0-1.55871-.3161-2.12132-.8787C2.31607 28.5587 2 27.7956 2 27v-6Zm3-1c-.26522 0-.51957.1054-.70711.2929C4.10536 20.4804 4 20.7348 4 21v6c0 .2652.10536.5196.29289.7071C4.48043 27.8946 4.73478 28 5 28h6c.2652 0 .5196-.1054.7071-.2929S12 27.2652 12 27v-6c0-.2652-.1054-.5196-.2929-.7071S11.2652 20 11 20H5Zm13 1c0-.7956.3161-1.5587.8787-2.1213C19.4413 18.3161 20.2044 18 21 18h6c.7956 0 1.5587.3161 2.1213.8787C29.6839 19.4413 30 20.2044 30 21v6c0 .7956-.3161 1.5587-.8787 2.1213C28.5587 29.6839 27.7956 30 27 30h-6c-.7956 0-1.5587-.3161-2.1213-.8787C18.3161 28.5587 18 27.7956 18 27v-6Zm3-1c-.2652 0-.5196.1054-.7071.2929S20 20.7348 20 21v6c0 .2652.1054.5196.2929.7071S20.7348 28 21 28h6c.2652 0 .5196-.1054.7071-.2929S28 27.2652 28 27v-6c0-.2652-.1054-.5196-.2929-.7071S27.2652 20 27 20h-6Z" fill="#101828"/></svg>