<svg width="32" height="32" fill="none" xmlns="http://www.w3.org/2000/svg"><path d="M8 4v4H4V4h4Zm2 24v-4c0-.5304-.21071-1.0391-.58579-1.4142C9.03914 22.2107 8.53043 22 8 22H4c-.53043 0-1.03914.2107-1.41421.5858C2.21071 22.9609 2 23.4696 2 24v4c0 .5304.21071 1.0391.58579 1.4142C2.96086 29.7893 3.46957 30 4 30h4c.53043 0 1.03914-.2107 1.41421-.5858C9.78929 29.0391 10 28.5304 10 28Zm0-10v-4c0-.5304-.21071-1.0391-.58579-1.4142C9.03914 12.2107 8.53043 12 8 12H4c-.53043 0-1.03914.2107-1.41421.5858C2.21071 12.9609 2 13.4696 2 14v4c0 .5304.21071 1.0391.58579 1.4142C2.96086 19.7893 3.46957 20 4 20h4c.53043 0 1.03914-.2107 1.41421-.5858C9.78929 19.0391 10 18.5304 10 18Zm0-10V4c0-.53043-.21071-1.03914-.58579-1.41421C9.03914 2.21071 8.53043 2 8 2H4c-.53043 0-1.03914.21071-1.41421.58579C2.21071 2.96086 2 3.46957 2 4v4c0 .53043.21071 1.03914.58579 1.41421C2.96086 9.78929 3.46957 10 4 10h4c.53043 0 1.03914-.21071 1.41421-.58579C9.78929 9.03914 10 8.53043 10 8Zm10 20v-4c0-.5304-.2107-1.0391-.5858-1.4142S18.5304 22 18 22h-4c-.5304 0-1.0391.2107-1.4142.5858S12 23.4696 12 24v4c0 .5304.2107 1.0391.5858 1.4142S13.4696 30 14 30h4c.5304 0 1.0391-.2107 1.4142-.5858S20 28.5304 20 28Zm0-10v-4c0-.5304-.2107-1.0391-.5858-1.4142S18.5304 12 18 12h-4c-.5304 0-1.0391.2107-1.4142.5858S12 13.4696 12 14v4c0 .5304.2107 1.0391.5858 1.4142S13.4696 20 14 20h4c.5304 0 1.0391-.2107 1.4142-.5858S20 18.5304 20 18Zm0-10V4c0-.53043-.2107-1.03914-.5858-1.41421C19.0391 2.21071 18.5304 2 18 2h-4c-.5304 0-1.0391.21071-1.4142.58579C12.2107 2.96086 12 3.46957 12 4v4c0 .53043.2107 1.03914.5858 1.41421C12.9609 9.78929 13.4696 10 14 10h4c.5304 0 1.0391-.21071 1.4142-.58579C19.7893 9.03914 20 8.53043 20 8Zm-2-4v4h-4V4h4Zm10 0v4h-4V4h4ZM8 14v4H4v-4h4Zm10 0v4h-4v-4h4Zm10 0h-4v4h4v-4ZM8 24v4H4v-4h4Zm10 0v4h-4v-4h4Zm10 0v4h-4v-4h4ZM24 2c-.5304 0-1.0391.21071-1.4142.58579C22.2107 2.96086 22 3.46957 22 4v4c0 .53043.2107 1.03914.5858 1.41421C22.9609 9.78929 23.4696 10 24 10h4c.5304 0 1.0391-.21071 1.4142-.58579C29.7893 9.03914 30 8.53043 30 8V4c0-.53043-.2107-1.03914-.5858-1.41421C29.0391 2.21071 28.5304 2 28 2h-4Zm-2 12c0-.5304.2107-1.0391.5858-1.4142S23.4696 12 24 12h4c.5304 0 1.0391.2107 1.4142.5858S30 13.4696 30 14v4c0 .5304-.2107 1.0391-.5858 1.4142S28.5304 20 28 20h-4c-.5304 0-1.0391-.2107-1.4142-.5858S22 18.5304 22 18v-4Zm2 8c-.5304 0-1.0391.2107-1.4142.5858S22 23.4696 22 24v4c0 .5304.2107 1.0391.5858 1.4142S23.4696 30 24 30h4c.5304 0 1.0391-.2107 1.4142-.5858S30 28.5304 30 28v-4c0-.5304-.2107-1.0391-.5858-1.4142S28.5304 22 28 22h-4Z" fill="#101828"/></svg>