<svg width="32" height="32" fill="none" xmlns="http://www.w3.org/2000/svg"><g clip-path="url(#a)" fill="#101828"><path fill-rule="evenodd" clip-rule="evenodd" d="M1 12c-.14963.0001-.297343.0337-.432247.0984-.134904.0648-.253561.159-.347223.2757-.093662.1166-.1599428.2529-.1939559.3986-.034013.1457-.0348915.2972-.0025707.4433L3.328 28.084c.24663 1.1105.86455 2.1037 1.75176 2.8157.88722.7119 1.99069 1.1001 3.12824 1.1003h11.584c1.1376-.0002 2.241-.3884 3.1282-1.1003.8873-.712 1.5052-1.7052 1.7518-2.8157l.262-1.18c1.5298.2861 3.111-.0334 4.4097-.8911 1.2987-.8577 2.2133-2.1865 2.5507-3.7059.3374-1.5194.0712-3.1104-.7423-4.4372-.8136-1.3268-2.1109-2.2855-3.6181-2.6738l.442-1.98c.0323-.1461.0314-.2976-.0026-.4433-.034-.1457-.1003-.282-.1939-.3986-.0937-.1167-.2123-.2109-.3472-.2757-.135-.0647-.2827-.0983-.4323-.0984H1Zm25 13c-.2117.0001-.423-.0166-.632-.05l1.734-7.796c.925.2679 1.7224.8604 2.2458 1.6687.5235.8083.7379 1.7783.604 2.7319-.134.9537-.6073 1.8271-1.3332 2.4599-.7259.6329-1.6556.9828-2.6186.9855ZM5.28 27.65 2.246 14h23.508L22.72 27.65c-.1479.6664-.5186 1.2624-1.0509 1.6896-.5324.4273-1.1945.6602-1.8771.6604H8.208c-.68258-.0002-1.34471-.2331-1.87705-.6604-.53233-.4272-.90305-1.0232-1.05095-1.6896Z"/><path d="m8.8 1.6-.006.008-.028.038c-.14552.20024-.28167.40713-.408.62a4.0002596 4.0002596 0 0 0-.282.534c-.052.12-.068.184-.074.206v.008c.02306.1768.08524.34624.182.496.15.266.356.544.616.89l.02.024c.236.316.52.694.74 1.086.224.4.44.91.44 1.49 0 .376-.13.736-.238.988-.1156.26815-.25063.52751-.404.776-.1569.26226-.32575.5172-.506.764l-.036.05-.01.016-.004.004c-.15886.21244-.39561.35306-.65816.39095-.26255.03785-.5294-.03009-.74184-.18895-.21244-.15887-.35307-.39562-.39095-.65817-.03788-.26255.03009-.52939.18895-.74183l.006-.008.028-.038c.14552-.20025.28167-.40713.408-.62.10732-.17064.20159-.34915.282-.534.052-.12.068-.184.074-.206-.02129-.17941-.08283-.35169-.18-.504-.18565-.31029-.39212-.60764-.618-.89l-.02-.024c-.27021-.34538-.51741-.70817-.74-1.086C6.16759 4.03945 6.01604 3.52625 6 3c0-.376.13-.736.238-.988.118-.276.268-.548.404-.776a12.001614 12.001614 0 0 1 .506-.764002l.05-.07c.15886-.212438.39561-.3530666.65816-.3909489.26256-.0378824.5294.0300848.74184.1889499.21244.158864.35307.395613.39095.658164C9.02683 1.12071 8.95886 1.38756 8.8 1.6Zm6 0-.006.008-.028.038c-.1455.20024-.2817.40713-.408.62-.1073.17064-.2016.34915-.282.534-.052.12-.068.184-.074.206v.008c.0231.1768.0852.34624.182.496.15.266.356.544.616.89l.02.024c.236.316.52.694.74 1.086.224.4.44.91.44 1.49 0 .376-.13.736-.238.988-.1156.26815-.2506.52751-.404.776-.1569.26226-.3257.5172-.506.764l-.036.05-.01.016-.004.004c-.1589.21244-.3956.35306-.6582.39095-.2625.03785-.5294-.03009-.7418-.18895-.2124-.15887-.3531-.39562-.3909-.65817-.0379-.26255.03-.52939.1889-.74183l.006-.008.028-.038c.1455-.20025.2817-.40713.408-.62.1073-.17064.2016-.34915.282-.534.052-.12.068-.184.074-.206-.0213-.17941-.0828-.35169-.18-.504-.1857-.31029-.3921-.60764-.618-.89l-.02-.024c-.2702-.34538-.5174-.70817-.74-1.086-.2724-.45055-.424-.96375-.44-1.49 0-.376.13-.736.238-.988.118-.276.268-.548.404-.776.1589-.261018.3277-.51587.506-.764002l.05-.07c.1589-.212438.3956-.3530666.6582-.390949.2625-.0378823.5294.0300849.7418.18895.2124.158864.3531.395613.3909.658164.0379.262547-.03.529397-.1889.741837Zm6 0-.006.008-.028.038c-.1455.20024-.2817.40713-.408.62-.1073.17064-.2016.34915-.282.534-.052.12-.068.184-.074.206v.008c.0231.1768.0852.34624.182.496.15.266.356.544.616.89l.02.024c.236.316.52.694.74 1.086.224.4.44.91.44 1.49 0 .376-.13.736-.238.988-.1156.26815-.2506.52751-.404.776-.1563.26222-.3244.51716-.504.764l-.038.05-.01.016-.004.004c-.1589.21244-.3956.35306-.6582.39095-.2625.03785-.5294-.03009-.7418-.18895-.2124-.15887-.3531-.39562-.3909-.65817-.0379-.26255.03-.52939.1889-.74183l.006-.008.028-.038c.1455-.20025.2817-.40713.408-.62.1073-.17064.2016-.34915.282-.534.052-.12.068-.184.074-.206-.0213-.17941-.0828-.35169-.18-.504-.1856-.31029-.3921-.60764-.618-.89l-.02-.024c-.2702-.34538-.5174-.70817-.74-1.086-.2724-.45055-.424-.96375-.44-1.49 0-.376.13-.736.238-.988.118-.276.268-.548.404-.776.1589-.261018.3277-.51587.506-.764002l.05-.07c.1589-.212438.3956-.3530666.6582-.390949.2625-.0378823.5294.0300849.7418.18895.2124.158864.3531.395613.3909.658164.0379.262547-.03.529397-.1889.741837Z"/></g><defs><clipPath id="a"><path fill="#fff" d="M0 0h32v32H0z"/></clipPath></defs></svg>