<svg width="32" height="32" fill="none" xmlns="http://www.w3.org/2000/svg"><path fill-rule="evenodd" clip-rule="evenodd" d="M12 7c0-.79565.3161-1.55871.8787-2.12132C13.4413 4.31607 14.2044 4 15 4h2c.7956 0 1.5587.31607 2.1213.87868C19.6839 5.44129 20 6.20435 20 7v2c0 .79565-.3161 1.5587-.8787 2.1213C18.5587 11.6839 17.7956 12 17 12v2h11c.2652 0 .5196.1054.7071.2929S29 14.7348 29 15v2c0 .2652-.1054.5196-.2929.7071S28.2652 18 28 18c-.2652 0-.5196-.1054-.7071-.2929S27 17.2652 27 17v-1H17v1c0 .2652-.1054.5196-.2929.7071S16.2652 18 16 18c-.2652 0-.5196-.1054-.7071-.2929S15 17.2652 15 17v-1H5v1c0 .2652-.10536.5196-.29289.7071C4.51957 17.8946 4.26522 18 4 18s-.51957-.1054-.70711-.2929C3.10536 17.5196 3 17.2652 3 17v-2c0-.2652.10536-.5196.29289-.7071C3.48043 14.1054 3.73478 14 4 14h11v-2c-.7956 0-1.5587-.3161-2.1213-.8787C12.3161 10.5587 12 9.79565 12 9V7Zm5 3c.2652 0 .5196-.10536.7071-.29289C17.8946 9.51957 18 9.26522 18 9V7c0-.26522-.1054-.51957-.2929-.70711C17.5196 6.10536 17.2652 6 17 6h-2c-.2652 0-.5196.10536-.7071.29289C14.1054 6.48043 14 6.73478 14 7v2c0 .26522.1054.51957.2929.70711.1875.18753.4419.29289.7071.29289h2ZM0 23c0-.7956.31607-1.5587.87868-2.1213C1.44129 20.3161 2.20435 20 3 20h2c.79565 0 1.55871.3161 2.12132.8787C7.68393 21.4413 8 22.2044 8 23v2c0 .7956-.31607 1.5587-.87868 2.1213C6.55871 27.6839 5.79565 28 5 28H3c-.79565 0-1.55871-.3161-2.12132-.8787C.31607 26.5587 0 25.7956 0 25v-2Zm3-1c-.26522 0-.51957.1054-.70711.2929C2.10536 22.4804 2 22.7348 2 23v2c0 .2652.10536.5196.29289.7071C2.48043 25.8946 2.73478 26 3 26h2c.26522 0 .51957-.1054.70711-.2929C5.89464 25.5196 6 25.2652 6 25v-2c0-.2652-.10536-.5196-.29289-.7071C5.51957 22.1054 5.26522 22 5 22H3Zm9 1c0-.7956.3161-1.5587.8787-2.1213C13.4413 20.3161 14.2044 20 15 20h2c.7956 0 1.5587.3161 2.1213.8787C19.6839 21.4413 20 22.2044 20 23v2c0 .7956-.3161 1.5587-.8787 2.1213C18.5587 27.6839 17.7956 28 17 28h-2c-.7956 0-1.5587-.3161-2.1213-.8787C12.3161 26.5587 12 25.7956 12 25v-2Zm3-1c-.2652 0-.5196.1054-.7071.2929S14 22.7348 14 23v2c0 .2652.1054.5196.2929.7071S14.7348 26 15 26h2c.2652 0 .5196-.1054.7071-.2929S18 25.2652 18 25v-2c0-.2652-.1054-.5196-.2929-.7071S17.2652 22 17 22h-2Zm9 1c0-.7956.3161-1.5587.8787-2.1213C25.4413 20.3161 26.2044 20 27 20h2c.7956 0 1.5587.3161 2.1213.8787C31.6839 21.4413 32 22.2044 32 23v2c0 .7956-.3161 1.5587-.8787 2.1213C30.5587 27.6839 29.7956 28 29 28h-2c-.7956 0-1.5587-.3161-2.1213-.8787C24.3161 26.5587 24 25.7956 24 25v-2Zm3-1c-.2652 0-.5196.1054-.7071.2929S26 22.7348 26 23v2c0 .2652.1054.5196.2929.7071S26.7348 26 27 26h2c.2652 0 .5196-.1054.7071-.2929S30 25.2652 30 25v-2c0-.2652-.1054-.5196-.2929-.7071S29.2652 22 29 22h-2Z" fill="#101828"/></svg>