<svg width="24" height="24" fill="none" xmlns="http://www.w3.org/2000/svg"><path d="m12 9.854-1.341-2.6835c-.333-.6645-.9105-1.62-1.728-2.3925C8.127 4.0175 7.164 3.5 6 3.5c-2.514 0-4.5 1.989-4.5 4.38 0 1.8165.831 3.099 2.802 5.055.5055.501 1.0815 1.0425 1.719 1.6395 1.662 1.56 3.729 3.501 5.979 6.096 2.25-2.595 4.317-4.536 5.979-6.096.6375-.597 1.215-1.14 1.719-1.6395C21.669 10.979 22.5 9.6965 22.5 7.88c0-2.391-1.986-4.38-4.5-4.38-1.1655 0-2.127.5175-2.931 1.278-.8175.7725-1.395 1.728-1.728 2.3925L12 9.854Zm.588 12.438c-.0722.0856-.1623.1543-.2638.2015-.1016.0472-.2122.0716-.3242.0716-.112 0-.2226-.0244-.3242-.0716-.1015-.0472-.1916-.1159-.2638-.2015-2.4015-2.853-4.575-4.893-6.3645-6.5715C1.95 12.812 0 10.9835 0 7.88 0 4.6325 2.685 2 6 2c2.4 0 4.0785 1.575 5.106 3.012.39.5475.687 1.074.894 1.488.2597-.518.5586-1.01544.894-1.488C13.9215 3.5735 15.6 2 18 2c3.315 0 6 2.6325 6 5.88 0 3.1035-1.95 4.932-5.0475 7.8405-1.7895 1.68-3.963 3.7215-6.3645 6.5715Z" fill="#E44848"/></svg>