<svg width="136" height="16" fill="none" xmlns="http://www.w3.org/2000/svg"><path d="M135.393 7.18744h-3.608c-.019-.22253-.097-.4143-.235-.57528-.137-.16099-.315-.28409-.532-.36932-.214-.08996-.45-.13494-.711-.13494-.336 0-.625.06155-.866.18466-.242.1231-.36.29829-.355.52557-.005.16098.064.31013.206.44744.146.13731.428.24384.845.3196l2.216.39773c1.117.2036 1.948.54687 2.493 1.02983.549.47822.826 1.11977.831 1.92467-.005.7766-.237 1.4513-.696 2.0242-.455.5682-1.078 1.0085-1.868 1.321-.786.3078-1.684.4617-2.692.4617-1.667 0-2.971-.3409-3.913-1.0228-.938-.6818-1.461-1.5814-1.57-2.6988h3.892c.052.3456.223.6131.511.8025.294.1847.663.277 1.108.277.36 0 .656-.0615.888-.1846.237-.1231.358-.2983.362-.5256-.004-.2083-.109-.3741-.312-.4972-.199-.1231-.512-.2225-.938-.2983l-1.931-.3409c-1.113-.1941-1.946-.56342-2.5-1.10793s-.829-1.24526-.824-2.10227c-.005-.75758.194-1.39915.596-1.92472.407-.5303.987-.93276 1.74-1.20738.758-.27936 1.655-.41904 2.692-.41904 1.577 0 2.82.32671 3.729.98012.914.6534 1.394 1.55776 1.442 2.71306ZM116.415 11.9602l.028-4.65906h.512l2.642-3.66478H124l-4.432 5.71023h-1.108l-2.045 2.61361Zm-3.523 2.5853V0h3.921v14.5455h-3.921Zm6.733 0-2.5-4.3182 2.557-2.78412 4.432 7.10232h-4.489ZM105.619 14.7443c-1.184 0-2.197-.2344-3.04-.7032-.843-.4734-1.489-1.1316-1.939-1.9744-.45-.8475-.6746-1.83-.6746-2.94744 0-1.11742.2246-2.09754.6746-2.94034.45-.84754 1.096-1.50568 1.939-1.97443.843-.47349 1.856-.71023 3.04-.71023 1.07 0 1.996.19413 2.777.58239.786.38352 1.394.92803 1.825 1.63352.431.70076.649 1.52462.654 2.47159h-3.637c-.052-.57291-.218-1.00852-.497-1.30682-.275-.30303-.63-.45454-1.065-.45454-.341 0-.64.09943-.895.29829-.256.19413-.455.49006-.597.88779-.142.39299-.213.88778-.213 1.48437s.071 1.09375.213 1.49145c.142.393.341.689.597.8878.255.1941.554.2912.895.2912.288 0 .544-.0663.767-.1989.222-.1373.402-.3361.539-.5965.143-.2652.228-.5872.256-.96596h3.637c-.015.96116-.235 1.79926-.661 2.51416-.426.7103-1.03 1.2595-1.811 1.6478-.777.3882-1.705.5824-2.784.5824ZM94.0487 9.77272V3.63635h3.9205V14.5454h-3.7216v-2.0738h-.1137c-.2367.696-.651 1.2405-1.2428 1.6335-.5919.3883-1.295.5824-2.1094.5824-.7623 0-1.43-.1752-2.0029-.5256-.5682-.3504-1.0109-.8333-1.3281-1.4488-.3125-.6156-.4711-1.3211-.4758-2.1165V3.63635h3.9204v6.13637c.0047.53978.1421.96358.4119 1.27128.2747.3078.6582.4617 1.1506.4617.3267 0 .6084-.0687.8452-.206.2415-.142.4261-.3409.554-.5966.1325-.2604.1965-.5705.1917-.93038ZM77.903 14.5454V3.63631h3.8068v2.07386h.1136c.1989-.76704.5138-1.32812.9446-1.68324.4356-.35511.9446-.53267 1.527-.53267.1705 0 .3386.01421.5043.04262.1704.02367.3338.05918.4901.10653v3.34517c-.1942-.06629-.4333-.116-.7174-.14915-.2841-.03314-.5279-.04971-.7315-.04971-.3835 0-.7292.08759-1.0369.26278-.3031.17046-.5422.41193-.7174.72443-.1752.30777-.2628.66998-.2628 1.08665v5.68182H77.903ZM64.4508 3.18182V0h12.642v3.18182h-4.375V14.5455h-3.892V3.18182h-4.375Z" fill="#475467"/><path d="M62.5078 0v14.5455h-3.9204V0h3.9204ZM51.2467 14.7443c-1.1648 0-2.1686-.2226-3.0114-.6677-.8381-.4498-1.4844-1.0937-1.9389-1.9318-.4498-.8428-.6747-1.8513-.6747-3.02554 0-1.12689.2272-2.11174.6818-2.95454.4545-.84281 1.0961-1.49858 1.9247-1.96733s1.8064-.70313 2.9332-.70313c.8239 0 1.5696.12784 2.2373.38352.6676.25569 1.2381.62737 1.7116 1.11506.4735.48296.8381 1.07008 1.0938 1.76137.2556.69128.3835 1.47017.3835 2.33664v.90909h-9.7443V7.84085h6.1363c-.0047-.3125-.0852-.58712-.2414-.82386-.1516-.24148-.3575-.4285-.6179-.56108-.2557-.13731-.5469-.20597-.8736-.20597-.3173 0-.6085.06866-.8736.20597-.2652.13258-.4782.31723-.6392.55398-.1563.23674-.2391.51373-.2486.83096v2.32955c0 .3504.0734.6629.2202.9375.1468.2746.3575.4901.6321.6463.2746.1563.606.2344.9943.2344.2699 0 .5161-.0379.7386-.1137.2273-.0757.4214-.1846.5824-.3267.161-.1467.2794-.3219.3551-.5255h3.5796c-.1231.7575-.4143 1.4157-.8736 1.9744-.4593.554-1.0677.9849-1.8253 1.2926-.7528.303-1.6335.4546-2.642.4546ZM44.8364 3.63635 41.1716 14.5454h-4.5455L32.9614 3.63635h4.1193l1.7613 7.21595h.1137l1.7613-7.21595h4.1194ZM25.056 14.7159c-.696 0-1.3115-.1137-1.8466-.341-.5303-.232-.9469-.5823-1.25-1.0511-.303-.4687-.4545-1.0653-.4545-1.7898 0-.5966.1018-1.1056.3054-1.527.2036-.42609.4877-.7741.8523-1.04399.3645-.26988.7883-.47585 1.2713-.6179.4877-.14204 1.0132-.23437 1.5767-.27698.6108-.04735 1.1008-.10417 1.4701-.17046.3741-.07102.644-.16809.8097-.29119.1657-.12784.2486-.29593.2486-.50426v-.02841c0-.28409-.1089-.5019-.3267-.65341-.2178-.15152-.4972-.22727-.8381-.22727-.3741 0-.6794.08286-.9162.24858-.232.16098-.3717.40956-.419.74573h-3.608c.0474-.66288.2581-1.27367.6321-1.83238.3788-.56345.9304-1.01326 1.6549-1.34943.7244-.34091 1.6287-.51137 2.713-.51137.7813 0 1.482.09233 2.1023.27699.6203.17993 1.1482.43324 1.5838.75994.4356.32197.767.70076.9943 1.13637.232.43087.348.89962.348 1.40625v7.47159h-3.6647v-1.5341h-.0853c-.2178.4072-.4829.7363-.7954.9872-.3078.251-.6605.4333-1.0583.5469-.393.1136-.8262.1705-1.2997.1705Zm1.2784-2.4716c.2983 0 .5777-.0616.8381-.1847.2651-.1231.4806-.3007.6463-.5327.1657-.232.2486-.5137.2486-.8451v-.90913c-.1042.04261-.2155.08286-.3338.12074-.1137.03788-.2368.07339-.3693.10653-.1279.03316-.2652.06396-.412.09236-.142.0284-.2912.0544-.4474.0781-.303.0473-.5516.1255-.7458.2344-.1894.1041-.3314.2343-.4261.3906-.09.1515-.1349.322-.1349.5114 0 .303.1065.535.3196.696.213.161.4853.2415.8167.2415ZM13.4522 14.5454V3.63631h3.8068v2.07386h.1137c.1988-.76704.5137-1.32812.9446-1.68324.4356-.35511.9446-.53267 1.527-.53267.1704 0 .3385.01421.5042.04262.1705.02367.3338.05918.4901.10653v3.34517c-.1942-.06629-.4333-.116-.7174-.14915-.284-.03314-.5279-.04971-.7315-.04971-.3835 0-.7292.08759-1.0369.26278-.3031.17046-.5422.41193-.7174.72443-.1751.30777-.2627.66998-.2627 1.08665v5.68182h-3.9205ZM0 3.18182V0h12.642v3.18182H8.26705V14.5455H4.375V3.18182H0Z" fill="#101828"/></svg>