<svg width="16" height="16" fill="none" xmlns="http://www.w3.org/2000/svg"><g clip-path="url(#a)"><path d="M7.55778.838169c.1876-.355574.69684-.355573.88444 0L10.3305 4.41705c.0723.13712.2042.23292.3569.25936l3.9873.68988c.3961.06855.5535.55286.2733.84116l-2.8203 2.90176c-.108.11118-.1584.26619-.1363.41965l.576 4.00524c.0572.3979-.3548.6973-.7155.5199l-3.63128-1.7855c-.13912-.0684-.30212-.0684-.44124 0L4.14815 14.054c-.36078.1774-.77276-.122-.71553-.5199l.57599-4.00524c.02207-.15346-.0283-.30847-.13635-.41965L1.05204 6.20745c-.280199-.2883-.122834-.77261.27331-.84116l3.98721-.68988c.15277-.02644.28463-.12224.35698-.25936L7.55778.838169Z" fill="#FFC531"/></g><defs><clipPath id="a"><path fill="#fff" d="M0 0h16v16H0z"/></clipPath></defs></svg>