<svg width="32" height="32" fill="none" xmlns="http://www.w3.org/2000/svg"><path d="M0 8s0-4 4-4h24s4 0 4 4v12s0 4-4 4h-8c0 1.3333.1667 2.3333.5 3H22c.2652 0 .5196.1054.7071.2929S23 27.7348 23 28c0 .2652-.1054.5196-.2929.7071S22.2652 29 22 29H10c-.26522 0-.51957-.1054-.70711-.2929C9.10536 28.5196 9 28.2652 9 28c0-.2652.10536-.5196.29289-.7071C9.48043 27.1054 9.73478 27 10 27h1.5c.3333-.6667.5-1.6667.5-3H4s-4 0-4-4V8Zm2.796-1.71c-.21956.15309-.3948.36145-.508.604-.16848.35297-.26632.73548-.288 1.126V20c0 .65.156 1.004.29 1.204.14.208.34133.3773.604.508.33768.1616.70263.2586 1.076.286l.05.002H28c.65 0 1.004-.156 1.204-.29.2196-.1531.3948-.3614.508-.604.1616-.3377.2586-.7026.286-1.076l.002-.05V8c0-.65-.156-1.004-.29-1.204-.1531-.21956-.3614-.3948-.604-.508-.353-.16848-.7355-.26632-1.126-.288H4c-.65 0-1.004.156-1.204.29Z" fill="#101828"/></svg>