<svg width="32" height="32" fill="none" xmlns="http://www.w3.org/2000/svg"><g clip-path="url(#a)"><path d="M25 4c-1.3261 0-2.5979.52679-3.5355 1.46447C20.5268 6.40215 20 7.67392 20 9c0 .26522-.1054.51957-.2929.70711C19.5196 9.89465 19.2652 10 19 10c-.2652 0-.5196-.10535-.7071-.29289C18.1054 9.51957 18 9.26522 18 9c0-1.38447.4105-2.73784 1.1797-3.88899.7692-1.15114 1.8624-2.04835 3.1415-2.57816 1.2791-.52982 2.6866-.66844 4.0444-.39834 1.3579.27009 2.6052.93678 3.5841 1.91575.979.97896 1.6457 2.22624 1.9158 3.58411.2701 1.35787.1315 2.76533-.3983 4.04443-.5299 1.2791-1.4271 2.3723-2.5782 3.1415C27.7378 15.5895 26.3845 16 25 16H1c-.265216 0-.51957-.1054-.707107-.2929C.105357 15.5196 0 15.2652 0 15c0-.2652.105357-.5196.292893-.7071C.48043 14.1054.734784 14 1 14h24c1.3261 0 2.5979-.5268 3.5355-1.4645C29.4732 11.5979 30 10.3261 30 9c0-1.32608-.5268-2.59785-1.4645-3.53553C27.5979 4.52679 26.3261 4 25 4ZM11 6c-.5304 0-1.03914.21072-1.41421.58579C9.21071 6.96086 9 7.46957 9 8c0 .26522-.10536.51957-.29289.70711C8.51957 8.89465 8.26522 9 8 9s-.51957-.10535-.70711-.29289C7.10536 8.51957 7 8.26522 7 8c0-.79112.2346-1.56448.67412-2.22228.43953-.65779 1.06424-1.17048 1.79515-1.47323.73093-.30276 1.53513-.38197 2.31113-.22763.7759.15434 1.4886.53531 2.048 1.09472.5594.55941.9404 1.27214 1.0947 2.04806.1544.77593.0752 1.58019-.2276 2.3111-.3027.73086-.8154 1.35566-1.4732 1.79516S11.7911 12 11 12H1c-.265216 0-.51957-.1054-.707107-.2929C.105357 11.5196 0 11.2652 0 11c0-.2652.105357-.5196.292893-.7071C.48043 10.1054.734784 10 1 10h10c.5304 0 1.0391-.21071 1.4142-.58578C12.7893 9.03914 13 8.53044 13 8c0-.53043-.2107-1.03914-.5858-1.41421S11.5304 6 11 6ZM0 19c0-.2652.105357-.5196.292893-.7071C.48043 18.1054.734784 18 1 18h20.084c1.1867 0 2.3467.3519 3.3334 1.0112.9867.6593 1.7558 1.5963 2.2099 2.6927.4541 1.0964.5729 2.3028.3414 3.4666-.2315 1.1639-.8029 2.233-1.6421 3.0721-.8391.8392-1.9082 1.4106-3.0721 1.6421-1.1638.2315-2.3702.1127-3.4666-.3414-1.0964-.4541-2.0334-1.2232-2.6927-2.2099-.6593-.9867-1.0112-2.1467-1.0112-3.3334 0-.2652.1054-.5196.2929-.7071S15.8188 23 16.084 23c.2652 0 .5196.1054.7071.2929s.2929.4419.2929.7071c0 .7911.2346 1.5645.6741 2.2223.4395.6578 1.0643 1.1705 1.7952 1.4732.7309.3028 1.5351.382 2.3111.2276.7759-.1543 1.4886-.5353 2.048-1.0947.5594-.5594.9404-1.2721 1.0947-2.048.1544-.776.0752-1.5802-.2276-2.3111-.3027-.7309-.8154-1.3556-1.4732-1.7952C22.6485 20.2346 21.8751 20 21.084 20H1c-.265216 0-.51957-.1054-.707107-.2929C.105357 19.5196 0 19.2652 0 19Z" fill="#101828"/></g><defs><clipPath id="a"><path fill="#fff" d="M0 0h32v32H0z"/></clipPath></defs></svg>